<svg width="88" height="72" viewBox="0 0 88 72" fill="none" xmlns="http://www.w3.org/2000/svg">
<g clip-path="url(#clip0_142_126)">
<path d="M72.4019 47.9286C73.3133 47.9286 74.1678 48.0597 74.9653 48.322C75.7629 48.5843 76.4578 48.9427 77.0503 49.3973C77.6427 49.8519 78.1099 50.3852 78.4517 50.9972C78.7935 51.6092 78.9644 52.2649 78.9644 52.9643C78.9644 53.6637 78.7935 54.3194 78.4517 54.9314C78.1099 55.5433 77.6427 56.0766 77.0503 56.5312C76.4578 56.9859 75.7629 57.3443 74.9653 57.6066C74.1678 57.8689 73.3133 58 72.4019 58C71.4904 58 70.6359 57.8689 69.8384 57.6066C69.0409 57.3443 68.3459 56.9859 67.7534 56.5312C67.161 56.0766 66.6938 55.5433 66.3521 54.9314C66.0103 54.3194 65.8394 53.6637 65.8394 52.9643C65.8394 52.4222 65.9647 51.8627 66.2153 51.2857H47.9634C48.214 51.8627 48.3394 52.4222 48.3394 52.9643C48.3394 53.6637 48.1685 54.3194 47.8267 54.9314C47.4849 55.5433 47.0177 56.0766 46.4253 56.5312C45.8328 56.9859 45.1379 57.3443 44.3403 57.6066C43.5428 57.8689 42.6883 58 41.7769 58C40.8654 58 40.0109 57.8689 39.2134 57.6066C38.4159 57.3443 37.7209 56.9859 37.1284 56.5312C36.536 56.0766 36.0688 55.5433 35.7271 54.9314C35.3853 54.3194 35.2144 53.6637 35.2144 52.9643C35.2144 52.0026 35.5448 51.1109 36.2056 50.2891C36.8664 49.4673 37.7778 48.8465 38.9399 48.4269L24.1743 14.3571H17.7144V11H27.3188L30.2241 17.7143H87.7144L77.5288 41.2143H40.4438L43.3491 47.9286H72.4019ZM31.6938 21.0714L38.9741 37.8571H74.3501L81.6304 21.0714H31.6938ZM43.9644 52.9643C43.9644 52.5097 43.7479 52.1163 43.3149 51.784C42.882 51.4518 42.3693 51.2857 41.7769 51.2857C41.1844 51.2857 40.6717 51.4518 40.2388 51.784C39.8058 52.1163 39.5894 52.5097 39.5894 52.9643C39.5894 53.4189 39.8058 53.8123 40.2388 54.1445C40.6717 54.4767 41.1844 54.6429 41.7769 54.6429C42.3693 54.6429 42.882 54.4767 43.3149 54.1445C43.7479 53.8123 43.9644 53.4189 43.9644 52.9643ZM72.4019 54.6429C72.9943 54.6429 73.507 54.4767 73.9399 54.1445C74.3729 53.8123 74.5894 53.4189 74.5894 52.9643C74.5894 52.5097 74.3729 52.1163 73.9399 51.784C73.507 51.4518 72.9943 51.2857 72.4019 51.2857C71.8094 51.2857 71.2967 51.4518 70.8638 51.784C70.4308 52.1163 70.2144 52.5097 70.2144 52.9643C70.2144 53.4189 70.4308 53.8123 70.8638 54.1445C71.2967 54.4767 71.8094 54.6429 72.4019 54.6429Z" fill="black"/>
</g>
<defs>
<clipPath id="clip0_142_126">
<rect x="0.714355" width="87" height="72" rx="2" fill="white"/>
</clipPath>
</defs>
</svg>
