<svg width="64" height="64" viewBox="0 0 64 64" fill="none" xmlns="http://www.w3.org/2000/svg">
<path d="M32.2668 49.4667L32.0002 49.7333L31.7068 49.4667C19.0402 37.9733 10.6668 30.3733 10.6668 22.6667C10.6668 17.3333 14.6668 13.3333 20.0002 13.3333C24.1068 13.3333 28.1068 16 29.5202 19.6267H34.4802C35.8935 16 39.8935 13.3333 44.0002 13.3333C49.3335 13.3333 53.3335 17.3333 53.3335 22.6667C53.3335 30.3733 44.9602 37.9733 32.2668 49.4667ZM44.0002 8C39.3602 8 34.9068 10.16 32.0002 13.5467C29.0935 10.16 24.6402 8 20.0002 8C11.7868 8 5.3335 14.4267 5.3335 22.6667C5.3335 32.72 14.4002 40.96 28.1335 53.4133L32.0002 56.9333L35.8668 53.4133C49.6002 40.96 58.6668 32.72 58.6668 22.6667C58.6668 14.4267 52.2135 8 44.0002 8Z" fill="black"/>
</svg>
