<svg width="47" height="46" viewBox="0 0 47 46" fill="none" xmlns="http://www.w3.org/2000/svg">
<g clip-path="url(#clip0_168_139)">
<path d="M42.6999 46L28.4897 31.7899C25.3595 34.1247 21.5617 35.3913 17.6567 35.4028H17.6529L17.4459 35.4047C12.8378 35.4047 8.41855 33.5742 5.16019 30.3158C1.90182 27.0574 0.0712891 22.6381 0.0712891 18.0301L0.0732057 17.8116V17.8231C0.0732057 13.0967 1.95079 8.56377 5.2929 5.22165C8.63502 1.87954 13.1679 0.00195313 17.8944 0.00195312C22.6208 0.00195313 27.1537 1.87954 30.4958 5.22165C33.838 8.56377 35.7155 13.0967 35.7155 17.8231C35.6661 21.7453 34.3899 25.5535 32.0662 28.7136L32.1026 28.6619L46.3128 42.872L42.6999 46ZM17.8944 4.81662C14.4633 4.70568 11.1285 5.96133 8.62259 8.30769C6.11673 10.6541 4.64479 13.8992 4.53017 17.3302C4.41555 20.7612 5.66761 24.0973 8.01129 26.6057C10.355 29.1141 13.5985 30.5895 17.0294 30.7078C20.4603 30.8261 23.7978 29.5776 26.3087 27.2367C28.8195 24.8957 30.2984 21.6537 30.4204 18.223C30.5424 14.7922 29.2975 11.4534 26.9592 8.93999C24.621 6.42659 21.3806 4.94421 17.95 4.81854L17.8944 4.81662Z" fill="black"/>
</g>
<defs>
<clipPath id="clip0_168_139">
<rect width="46" height="46" fill="white" transform="translate(0.0712891)"/>
</clipPath>
</defs>
</svg>
